<?xml version="1.0" standalone="no"?><svg xmlns="http://www.w3.org/2000/svg" viewBox="0 0 1440 320"><path fill="#7CC9CCE5" fill-opacity="1" d="M0,224L24,208C48,192,96,160,144,144C192,128,240,128,288,106.7C336,85,384,43,432,69.3C480,96,528,192,576,208C624,224,672,160,720,133.3C768,107,816,117,864,112C912,107,960,85,1008,69.3C1056,53,1104,43,1152,64C1200,85,1248,139,1296,144C1344,149,1392,107,1416,85.3L1440,64L1440,320L1416,320C1392,320,1344,320,1296,320C1248,320,1200,320,1152,320C1104,320,1056,320,1008,320C960,320,912,320,864,320C816,320,768,320,720,320C672,320,624,320,576,320C528,320,480,320,432,320C384,320,336,320,288,320C240,320,192,320,144,320C96,320,48,320,24,320L0,320Z"></path></svg>